<?xml version="1.0" encoding="UTF-8"?>
<svg xmlns="http://www.w3.org/2000/svg" xmlns:xlink="http://www.w3.org/1999/xlink" width="236.12pt" height="217.23pt" viewBox="0 0 236.12 217.23" version="1.1">
<defs>
<clipPath id="clip1">
  <path d="M 135 2 L 236.121094 2 L 236.121094 142 L 135 142 Z M 135 2 "/>
</clipPath>
<clipPath id="clip2">
  <path d="M 0 0 L 183 0 L 183 217.230469 L 0 217.230469 Z M 0 0 "/>
</clipPath>
</defs>
<g id="surface1">
<g clip-path="url(#clip1)" clip-rule="nonzero">
<path style=" stroke:none;fill-rule:nonzero;fill:rgb(11.376953%,11.376953%,10.594177%);fill-opacity:1;" d="M 173.121094 123.285156 L 173.121094 70.886719 L 225.929688 70.886719 L 225.929688 67.21875 L 173.121094 67.21875 L 173.121094 6.660156 L 189.023438 6.660156 C 217.566406 6.660156 228.578125 23.378906 234.695313 45.398438 L 236.121094 45.398438 L 230.210938 2.992188 L 135.195313 2.992188 L 135.195313 4.417969 C 135.195313 4.417969 148.652344 5.84375 148.652344 21.339844 L 148.652344 123.285156 C 148.652344 125.621094 148.347656 127.636719 147.828125 129.375 C 147.550781 132.449219 146.820313 135.382813 145.644531 138.128906 C 145.132813 139.328125 144.53125 140.5 143.847656 141.636719 L 186.574219 141.636719 L 186.574219 140.207031 C 186.574219 140.207031 173.121094 138.78125 173.121094 123.285156 "/>
</g>
<g clip-path="url(#clip2)" clip-rule="nonzero">
<path style=" stroke:none;fill-rule:nonzero;fill:rgb(11.376953%,11.376953%,10.594177%);fill-opacity:1;" d="M 85.550781 191.78125 C 79.65625 178.84375 84.898438 157.554688 98.324219 154.773438 L 133.53125 199.3125 C 120.757813 214.867188 94.230469 210.613281 85.550781 191.78125 M 105.492188 108.476563 C 104.761719 112.269531 103.734375 115.753906 102.398438 118.898438 C 102.261719 119.980469 102.191406 121.128906 102.191406 122.347656 C 102.191406 124.78125 103.304688 127.820313 105.589844 131.59375 C 114.382813 125.425781 121.117188 116.90625 125.523438 106.394531 C 132.863281 109.414063 135.988281 117.097656 135.988281 126.933594 C 135.988281 140.03125 129.109375 150.839844 120.59375 153.953125 C 112.734375 144.125 100.128906 131.191406 100.128906 122.347656 C 100.128906 116.152344 101.796875 111.425781 105.492188 108.476563 M 182.003906 197.839844 L 181.347656 197.839844 C 177.746094 206.191406 171.03125 208.484375 165.300781 206.679688 C 159.40625 204.878906 154.984375 198.003906 150.890625 193.089844 L 135.824219 173.929688 C 139.101563 169.019531 144.996094 162.46875 148.925781 158.375 C 159.570313 147.238281 172.339844 162.304688 154.328125 171.472656 L 161.535156 177.863281 C 175.78125 172.785156 176.925781 159.519531 169.230469 153.789063 C 163.828125 149.859375 154.164063 149.859375 146.632813 157.390625 C 143.359375 160.667969 139.425781 165.089844 134.351563 171.800781 C 129.4375 165.742188 124.6875 159.683594 121.742188 155.753906 C 133.859375 151.496094 146.632813 142.160156 146.632813 125.785156 C 146.632813 115.460938 140.726563 106.175781 126.671875 103.484375 C 129.832031 94.847656 131.507813 84.984375 131.507813 74.019531 C 131.507813 29.367188 105.207031 0.00390625 65.039063 0.00390625 C 24.875 0.00390625 0 29.367188 0 74.019531 C 0 116.835938 23.855469 143.136719 65.039063 143.136719 C 73.007813 143.136719 80.378906 142.152344 87.089844 140.253906 C 86.53125 138.964844 86.074219 137.632813 85.734375 136.230469 C 83.101563 137.351563 80.21875 138.164063 77.070313 138.652344 C 50.769531 142.730469 34.253906 119.894531 27.117188 79.726563 C 19.777344 38.949219 28.339844 8.773438 53.417969 4.695313 C 80.945313 0.210938 97.460938 27.941406 104.394531 67.492188 C 106.859375 81.449219 107.484375 93.757813 106.179688 104.078125 C 93.265625 107.433594 86.042969 116.757813 86.042969 130.042969 C 86.042969 139.378906 90.628906 144.945313 97.179688 153.296875 C 75.890625 157.390625 64.101563 179.988281 72.78125 199.476563 C 83.09375 222.730469 117.648438 223.054688 134.679688 200.949219 L 140.902344 208.15625 C 154.003906 223.382813 179.382813 218.964844 182.003906 197.839844 "/>
</g>
</g>
</svg>
